# Made in Blockbench 4.11.2
mtllib weapon01_test.mtl

o grip
v 0.04375 0 0.12500000000000003
v 0.04375 0 0.025000000000000022
v 0.04375 -0.16250000000000003 0.17500000000000002
v 0.04375 -0.16250000000000003 0.07500000000000001
v -0.01875 0 0.12500000000000003
v -0.01875 0 0.025000000000000022
v -0.01875 -0.16250000000000003 0.17500000000000002
v -0.01875 -0.16250000000000003 0.07500000000000001
vt 0.25 1
vt 0 1
vt 0 0.875
vt 0.25 0.875
vt 0.25 0.875
vt 0.25 1
vt 0 1
vt 0 0.875
vt 0.25 0.75
vt 0.25 1
vt 0 1
vt 0 0.75
vt 0.25 0.875
vt 0.25 1
vt 0 1
vt 0 0.875
vt 0.25 1
vt 0 1
vt 0 0.875
vt 0.25 0.875
vn 1 0 0
vn -1 0 0
vn 0 -1 0
vn 0 0.2940858488375231 0.9557790087219502
vn 0 -0.294085848837523 -0.9557790087219502
usemtl m_1759ba4a-4210-af68-b0d6-6ef94325da53
f 2/1/1 1/2/1 3/3/1 4/4/1
f 7/5/2 5/6/2 6/7/2 8/8/2
f 4/9/3 3/10/3 7/11/3 8/12/3
f 3/13/4 1/14/4 5/15/4 7/16/4
f 6/17/5 2/18/5 4/19/5 8/20/5
o body
v 0.05 0.05 0.125
v 0.05 0.05 -0.2125
v 0.05 0 0.125
v 0.05 0 -0.20000000000000004
v -0.025 0.05 0.125
v -0.025 0.05 -0.2125
v -0.025 0 0.125
v -0.025 0 -0.20000000000000004
v 0.05 0.006250000000000002 -0.2125
v -0.025 0.006250000000000002 -0.2125
v -0.025 0.006250000000000002 0.125
v 0.05 0.006250000000000002 0.125
vt 0 1
vt 0 0.875
vt 0.5 0.875
vt 0.5 1
vt 0.5 0.75
vt 0.5 0.875
vt 0 0.875
vt 0 0.75
vt 0 0.75
vt 0.25 0.75
vt 0.25 1
vt 0 1
vt 0.25 1
vt 0.25 0.75
vt 0 0.75
vt 0 1
vt 0.5 0.5
vt 0.5 0.625
vt 0.25 0.625
vt 0.25 0.5
vt 0.5 0.5
vt 0.5 0.625
vt 0.25 0.625
vt 0.25 0.5
vt 0.25 0.75
vt 0.25 0.625
vt 0.5 0.625
vt 0.5 0.75
vt 0 1
vt 0 0.875
vt 0.5 0.875
vt 0.5 1
vt 0.25 0.75
vt 0.25 0.625
vt 0.5 0.625
vt 0.5 0.75
vt 0.5 0.75
vt 0.5 0.875
vt 0 0.875
vt 0 0.75
vn 1 0 0
vn -1 0 0
vn 0 1 0
vn 0 -1 0
vn 0 0 1
vn 0 -0.8944271909999152 -0.44721359549995937
vn 0 0 -1
vn -1 0 0
vn 0 0 1
vn 1 0 0
usemtl m_1759ba4a-4210-af68-b0d6-6ef94325da53
f 12/21/6 17/22/6 20/23/6 11/24/6
f 15/25/7 19/26/7 18/27/7 16/28/7
f 13/29/8 9/30/8 10/31/8 14/32/8
f 12/33/9 11/34/9 15/35/9 16/36/9
f 11/37/10 20/38/10 19/39/10 15/40/10
f 16/41/11 18/42/11 17/43/11 12/44/11
f 10/45/12 17/46/12 18/47/12 14/48/12
f 14/49/13 18/50/13 19/51/13 13/52/13
f 13/53/14 19/54/14 20/55/14 9/56/14
f 9/57/15 20/58/15 17/59/15 10/60/15
o slide01
v 0.05 0.08750000000000001 0.125
v 0.05 0.08750000000000001 -0.2125
v 0.05 0.05 0.125
v 0.05 0.05 -0.2125
v 0.0125 0.1 0.125
v 0.0125 0.1 -0.2125
v 0.0125 0.05 0.125
v 0.0125 0.05 -0.2125
v 0.025000000000000005 0.1 0.125
v 0.025000000000000005 0.05 0.125
v 0.025000000000000005 0.05 -0.2125
v 0.025000000000000005 0.1 -0.2125
vt 0 1
vt 0.5 1
vt 0.5 0.75
vt 0 0.75
vt 0.25 0.875
vt 0.25 1
vt 0 1
vt 0 0.875
vt 0 0.5
vt 0.375 0.5
vt 0.375 1
vt 0 1
vt 0 0.875
vt 0.125 0.875
vt 0.125 1
vt 0 1
vt 0.25 1
vt 0.125 1
vt 0.125 0.875
vt 0.25 0.875
vt 0.25 1
vt 0.125 1
vt 0.125 0.875
vt 0.25 0.875
vt 0 0.875
vt 0.125 0.875
vt 0.125 1
vt 0 1
vt 0.375 1
vt 0.125 1
vt 0.125 0.5
vt 0.375 0.5
vn 1 0 0
vn -1 0 0
vn 0 1 0
vn 0 0 1
vn 0 0 -1
vn 0 0 1
vn 0 0 -1
vn 0.44721359549995804 0.8944271909999161 0
usemtl m_1759ba4a-4210-af68-b0d6-6ef94325da53
f 22/61/16 21/62/16 23/63/16 24/64/16
f 27/65/17 25/66/17 26/67/17 28/68/17
f 25/69/18 29/70/18 32/71/18 26/72/18
f 27/73/19 30/74/19 29/75/19 25/76/19
f 26/77/20 32/78/20 31/79/20 28/80/20
f 21/81/21 29/82/21 30/83/21 23/84/21
f 24/85/22 31/86/22 32/87/22 22/88/22
f 22/89/23 32/90/23 29/91/23 21/92/23
o slide02-1
v -0.024999999999999994 0.08750000000000001 0.125
v -0.024999999999999994 0.08750000000000001 0.024999999999999994
v -0.024999999999999994 0.05 0.125
v -0.024999999999999994 0.05 0.024999999999999994
v 0.012500000000000004 0.1 0.125
v 0.012500000000000004 0.1 0.024999999999999994
v 0.012500000000000004 0.05 0.125
v 0.012500000000000004 0.05 0.024999999999999994
v 0 0.1 0.125
v 0 0.05 0.125
v 0 0.05 0.024999999999999994
v 0 0.1 0.024999999999999994
vt 0 0.75
vt 0 1
vt 0.25 1
vt 0.25 0.75
vt 0.25 0.75
vt 0.25 1
vt 0 1
vt 0 0.75
vt 0.125 1
vt 0.125 0.875
vt 0 0.875
vt 0 1
vt 0.125 0.875
vt 0.125 1
vt 0.25 1
vt 0.25 0.875
vt 0.125 0.875
vt 0.125 1
vt 0.25 1
vt 0.25 0.875
vt 0.125 1
vt 0.125 0.875
vt 0 0.875
vt 0 1
vt 0.125 1
vt 0.125 0.75
vt 0.375 0.75
vt 0.375 1
vn -1 0 0
vn 0 1 0
vn 0 0 1
vn 0 0 -1
vn 0 0 1
vn 0 0 -1
vn -0.44721359549995804 0.8944271909999161 0
usemtl m_1759ba4a-4210-af68-b0d6-6ef94325da53
f 35/93/24 33/94/24 34/95/24 36/96/24
f 44/97/25 41/98/25 37/99/25 38/100/25
f 41/101/26 42/102/26 39/103/26 37/104/26
f 43/105/27 44/106/27 38/107/27 40/108/27
f 42/109/28 41/110/28 33/111/28 35/112/28
f 44/113/29 43/114/29 36/115/29 34/116/29
f 41/117/30 44/118/30 34/119/30 33/120/30
o slide02-2
v -0.024999999999999994 0.08750000000000001 -0.037500000000000006
v -0.024999999999999994 0.08750000000000001 -0.21250000000000002
v -0.024999999999999994 0.05 -0.037500000000000006
v -0.024999999999999994 0.05 -0.21250000000000002
v 0.012500000000000004 0.1 -0.037500000000000006
v 0.012500000000000004 0.1 -0.21250000000000002
v 0.012500000000000004 0.05 -0.037500000000000006
v 0 0.1 -0.037500000000000006
v 0 0.05 -0.037500000000000006
v 0 0.05 -0.21250000000000002
v 0 0.1 -0.21250000000000002
v 0.012500000000000004 0.05 -0.21250000000000002
vt 0.25 0.75
vt 0.25 1
vt 0 1
vt 0 0.75
vt 0.25 1
vt 0.25 0.75
vt 0 0.75
vt 0 1
vt 0.25 1
vt 0.25 0.75
vt 0 0.75
vt 0 1
vt 0.125 0.75
vt 0.125 1
vt 0.375 1
vt 0.375 0.75
vt 0.125 1
vt 0.125 0.875
vt 0 0.875
vt 0 1
vt 0.125 0.75
vt 0.125 1
vt 0.375 1
vt 0.375 0.75
vt 0.125 0.875
vt 0.125 1
vt 0.25 1
vt 0.25 0.875
vn -1 0 0
vn 0 1 0
vn 0 0 1
vn 0 0 1
vn 0 0 -1
vn -0.447213595499958 0.894427190999916 0
vn 0 0 -1
usemtl m_1759ba4a-4210-af68-b0d6-6ef94325da53
f 47/121/31 45/122/31 46/123/31 48/124/31
f 55/125/32 52/126/32 49/127/32 50/128/32
f 52/129/33 53/130/33 51/131/33 49/132/33
f 53/133/34 52/134/34 45/135/34 47/136/34
f 55/137/35 54/138/35 48/139/35 46/140/35
f 52/141/36 55/142/36 46/143/36 45/144/36
f 54/145/37 55/146/37 50/147/37 56/148/37
o innerslide
v -0.01249999999999999 0.08125 0.024999999999999994
v -0.01249999999999999 0.08125 -0.037500000000000006
v -0.01249999999999999 0.05 0.024999999999999994
v -0.01249999999999999 0.05 -0.037500000000000006
v 0.0125 0.09375 0.024999999999999994
v 0.0125 0.09375 -0.037500000000000006
v 0.0125 0.05 0.024999999999999994
v 0.0125 0.05 -0.037500000000000006
v 1.0408340855860843e-17 0.09375 0.024999999999999994
v 1.0408340855860843e-17 0.05 0.024999999999999994
v 6.938893903907228e-18 0.05 -0.037500000000000006
v 6.938893903907228e-18 0.09375 -0.037500000000000006
vt 0 0.25
vt 0 0.5
vt 0.25 0.5
vt 0.25 0.25
vt 0.25 1
vt 0.25 0.75
vt 0 0.75
vt 0 1
vt 0.5 1
vt 0.5 0.75
vt 0.25 0.75
vt 0.25 1
vt 0.25 0.75
vt 0.25 1
vt 0.5 1
vt 0.5 0.75
vt 0.25 0.5
vt 0.25 0.75
vt 0.5 0.75
vt 0.5 0.5
vt 0.5 0.75
vt 0.5 0.5
vt 0.25 0.5
vt 0.25 0.75
vt 0 0.5
vt 0 0.75
vt 0.25 0.75
vt 0.25 0.5
vn -1 0 0
vn 0 1 0
vn 0 0 1
vn 0 0 -1
vn 0 0 1
vn 0 0 -1
vn -0.7071067811865477 0.7071067811865475 3.9252311467094385e-17
usemtl m_2d6011f5-1377-22c8-0002-d482678a181f
f 59/149/38 57/150/38 58/151/38 60/152/38
f 68/153/39 65/154/39 61/155/39 62/156/39
f 65/157/40 66/158/40 63/159/40 61/160/40
f 67/161/41 68/162/41 62/163/41 64/164/41
f 66/165/42 65/166/42 57/167/42 59/168/42
f 68/169/43 67/170/43 60/171/43 58/172/43
f 65/173/44 68/174/44 58/175/44 57/176/44
o magazine
v 0.037500000000000006 -0.0625 0.125
v 0.037500000000000006 -0.0625 0.0625
v 0.037500000000000006 -0.22500000000000003 0.175
v 0.037500000000000006 -0.22500000000000003 0.11249999999999999
v -0.0125 -0.0625 0.125
v -0.0125 -0.0625 0.0625
v -0.0125 -0.22500000000000003 0.175
v -0.0125 -0.22500000000000003 0.11249999999999999
vt 0.25 1
vt 0 1
vt 0 0.875
vt 0.25 0.875
vt 0.25 0.875
vt 0.25 1
vt 0 1
vt 0 0.875
vt 0 0.75
vt 0.25 0.75
vt 0.25 1
vt 0 1
vt 0.25 0.75
vt 0.25 1
vt 0 1
vt 0 0.75
vt 0.25 0.875
vt 0.25 1
vt 0 1
vt 0 0.875
vt 0.25 1
vt 0 1
vt 0 0.875
vt 0.25 0.875
vn 1 0 0
vn -1 0 0
vn 0 1 0
vn 0 -1 0
vn 0 0.2940858488375231 0.9557790087219501
vn 0 -0.29408584883752303 -0.9557790087219503
usemtl m_1759ba4a-4210-af68-b0d6-6ef94325da53
f 70/177/45 69/178/45 71/179/45 72/180/45
f 75/181/46 73/182/46 74/183/46 76/184/46
f 73/185/47 69/186/47 70/187/47 74/188/47
f 72/189/48 71/190/48 75/191/48 76/192/48
f 71/193/49 69/194/49 73/195/49 75/196/49
f 74/197/50 70/198/50 72/199/50 76/200/50
o barrel
v 0.0125 0.0625 -0.2625
v 0.02285533905932738 0.037500000000000006 -0.2625
v 0.02285533905932738 0.03750000000000002 -0.2125
v 0.037500000000000006 0.05214466094067262 -0.2625
v 0.037500000000000006 0.052144660940672646 -0.2125
v 0.037500000000000006 0.07285533905932738 -0.2625
v 0.037500000000000006 0.0728553390593274 -0.2125
v 0.022855339059327382 0.0875 -0.2625
v 0.022855339059327382 0.08750000000000002 -0.2125
v 0.0021446609406726262 0.08750000000000001 -0.2625
v 0.0021446609406726262 0.08750000000000002 -0.2125
v -0.012499999999999994 0.0728553390593274 -0.2625
v -0.012499999999999994 0.07285533905932742 -0.2125
v -0.012499999999999997 0.05214466094067262 -0.2625
v -0.012499999999999997 0.05214466094067264 -0.2125
v 0.0021446609406726054 0.037500000000000006 -0.2625
v 0.0021446609406726054 0.037500000000000026 -0.2125
vt 0.125 0.90625
vt 0.08838630121074985 1
vt 0 0.9062500000000001
vt 0.75 0.75
vt 0.8125 0.75
vt 0.8125 0.875
vt 0.75 0.875
vt 0.125 0.90625
vt 0.125 1
vt 0 0.953125
vt 0.8125 0.75
vt 0.875 0.75
vt 0.875 0.875
vt 0.8125 0.875
vt 6.11950637266263e-17 0.875
vt 0.09375 0.9116136987892502
vt 0 1
vt 0.875 0.75
vt 0.9375 0.75
vt 0.9375 0.875
vt 0.875 0.875
vt 0 0.875
vt 0.09375 0.875
vt 0.046875 1
vt 0.7499999999999998 0.625
vt 0.8124999999999998 0.625
vt 0.8124999999999998 0.75
vt 0.7499999999999998 0.75
vt 0 1
vt 0.03661369878925015 0.90625
vt 0.125 0.9999999999999999
vt 0.8125 0.625
vt 0.875 0.625
vt 0.875 0.75
vt 0.8125 0.75
vt 0 1
vt 0 0.90625
vt 0.125 0.953125
vt 0.875 0.625
vt 0.9375 0.625
vt 0.9375 0.75
vt 0.875 0.75
vt 0.09375 1
vt 0 0.9633863012107498
vt 0.09374999999999997 0.875
vt 0.6875 0.625
vt 0.75 0.625
vt 0.75 0.75
vt 0.6875 0.75
vt 0.09375 1
vt 0 1
vt 0.046875 0.875
vt 0.6875 0.75
vt 0.75 0.75
vt 0.75 0.875
vt 0.6875 0.875
vn 0 -2.220446049250313e-16 -1
vn 0.7071067811865472 -0.7071067811865478 3.1405898121851035e-16
vn 0 -2.220446049250313e-16 -1
vn 1 0 0
vn 0 -2.220446049250313e-16 -1
vn 0.7071067811865477 0.7071067811865474 -2.878840253268214e-16
vn 0 -2.220446049250313e-16 -1
vn 1.675197177068082e-16 1 -4.996003610813204e-16
vn 0 -2.220446049250313e-16 -1
vn -0.7071067811865475 0.7071067811865478 -3.1405898121851035e-16
vn 0 -2.220446049250313e-16 -1
vn -1 1.6751971770680803e-16 -8.369291145456215e-32
vn 0 -2.220446049250313e-16 -1
vn -0.7071067811865477 -0.7071067811865475 2.617090694351328e-16
vn 0 -2.220446049250313e-16 -1
vn 0 -1 2.220446049250313e-16
usemtl m_1759ba4a-4210-af68-b0d6-6ef94325da53
f 80/201/51 78/202/51 77/203/51
f 78/204/52 80/205/52 81/206/52 79/207/52
f 82/208/53 80/209/53 77/210/53
f 80/211/54 82/212/54 83/213/54 81/214/54
f 84/215/55 82/216/55 77/217/55
f 82/218/56 84/219/56 85/220/56 83/221/56
f 86/222/57 84/223/57 77/224/57
f 84/225/58 86/226/58 87/227/58 85/228/58
f 88/229/59 86/230/59 77/231/59
f 86/232/60 88/233/60 89/234/60 87/235/60
f 90/236/61 88/237/61 77/238/61
f 88/239/62 90/240/62 91/241/62 89/242/62
f 92/243/63 90/244/63 77/245/63
f 90/246/64 92/247/64 93/248/64 91/249/64
f 78/250/65 92/251/65 77/252/65
f 92/253/66 78/254/66 79/255/66 93/256/66
o suppressor
v 0.0125 0.0625 -0.5125000000000001
v 0.0125 0.06250000000000003 -0.26250000000000007
v 0.028033008588991066 0.02499999999999996 -0.5125000000000001
v 0.028033008588991066 0.025000000000000015 -0.2625
v 0.05 0.046966991411008935 -0.5125000000000001
v 0.05 0.046966991411008956 -0.26250000000000007
v 0.05 0.07803300858899107 -0.5125000000000001
v 0.05 0.07803300858899109 -0.26250000000000007
v 0.028033008588991073 0.09999999999999998 -0.5125000000000001
v 0.028033008588991073 0.10000000000000003 -0.26250000000000007
v -0.0030330085889910628 0.09999999999999998 -0.5125000000000001
v -0.0030330085889910628 0.10000000000000003 -0.26250000000000007
v -0.024999999999999998 0.07803300858899109 -0.5125000000000001
v -0.024999999999999998 0.07803300858899112 -0.26250000000000007
v -0.025000000000000005 0.04696699141100893 -0.5125000000000001
v -0.025000000000000005 0.04696699141100895 -0.26250000000000007
v -0.0030330085889910905 0.024999999999999974 -0.5125000000000001
v -0.0030330085889910905 0.025000000000000022 -0.2625
vt 0.421875 0.972540625
vt 0.394415625 1
vt 0.375 0.953125
vt 0.234375 0.6875
vt 0.265625 0.6875
vt 0.265625 1
vt 0.234375 1
vt 0.11316562499999999 0.578125
vt 0.140625 0.6055843750000001
vt 0.09375 0.625
vt 0.421875 0.9337093750000001
vt 0.421875 0.972540625
vt 0.375 0.953125
vt 0 0.6875
vt 0.03125 0.6875
vt 0.03125 1
vt 0 1
vt 0.140625 0.6055843750000001
vt 0.140625 0.6444156249999999
vt 0.09375 0.625
vt 0.394415625 0.90625
vt 0.421875 0.9337093750000001
vt 0.375 0.953125
vt 0.28125 0.6875
vt 0.3125 0.6875
vt 0.3125 1
vt 0.28125 1
vt 0.140625 0.6444156249999999
vt 0.11316562499999999 0.671875
vt 0.09375 0.625
vt 0.355584375 0.90625
vt 0.394415625 0.90625
vt 0.375 0.953125
vt 0.140625 0.6875
vt 0.171875 0.6875
vt 0.171875 1
vt 0.140625 1
vt 0.11316562499999999 0.671875
vt 0.07433437500000001 0.671875
vt 0.09375 0.625
vt 0.328125 0.9337093750000001
vt 0.355584375 0.90625
vt 0.375 0.953125
vt 0 0.359375
vt 0.03125 0.359375
vt 0.03125 0.671875
vt 0 0.671875
vt 0.07433437500000001 0.671875
vt 0.046875 0.6444156249999999
vt 0.09375 0.625
vt 0.328125 0.972540625
vt 0.328125 0.9337093750000001
vt 0.375 0.953125
vt 0.046875 0.6875
vt 0.078125 0.6875
vt 0.078125 1
vt 0.046875 1
vt 0.046875 0.6444156249999999
vt 0.046875 0.6055843750000001
vt 0.09375 0.625
vt 0.355584375 1
vt 0.328125 0.972540625
vt 0.375 0.953125
vt 0.1875 0.6875
vt 0.21875 0.6875
vt 0.21875 1
vt 0.1875 1
vt 0.046875 0.6055843750000001
vt 0.07433437500000001 0.578125
vt 0.09375 0.625
vt 0.394415625 1
vt 0.355584375 1
vt 0.375 0.953125
vt 0.09375 0.6875
vt 0.125 0.6875
vt 0.125 1
vt 0.09375 1
vt 0.07433437500000001 0.578125
vt 0.11316562499999999 0.578125
vt 0.09375 0.625
vn 0 -2.220446049250313e-16 -1
vn 0.707106781186548 -0.7071067811865471 6.62693987771897e-17
vn 0 2.220446049250313e-16 1
vn 0 -2.220446049250313e-16 -1
vn 1 0 0
vn 0 2.220446049250313e-16 1
vn 0 -2.220446049250313e-16 -1
vn 0.707106781186547 0.707106781186548 -1.5700924586837762e-16
vn 0 2.220446049250313e-16 1
vn 0 -2.220446049250313e-16 -1
vn 2.2335962360907756e-16 1 -1.942890293094024e-16
vn 0 2.220446049250313e-16 1
vn 0 -2.220446049250313e-16 -1
vn -0.7071067811865468 0.7071067811865482 -7.324938701497346e-17
vn 0 2.220446049250313e-16 1
vn 0 -2.220446049250313e-16 -1
vn -1 2.2335962360907736e-16 -1.8598424767680475e-32
vn 0 2.220446049250313e-16 1
vn 0 -2.220446049250313e-16 -1
vn -0.7071067811865481 -0.7071067811865469 1.4304926939281002e-16
vn 0 2.220446049250313e-16 1
vn 0 -2.220446049250313e-16 -1
vn -4.467192472181548e-16 -1 2.220446049250313e-16
vn 0 2.220446049250313e-16 1
usemtl m_61df5325-e8d0-0a21-20cb-d3c51df2ff50
f 98/257/67 96/258/67 94/259/67
f 96/260/68 98/261/68 99/262/68 97/263/68
f 97/264/69 99/265/69 95/266/69
f 100/267/70 98/268/70 94/269/70
f 98/270/71 100/271/71 101/272/71 99/273/71
f 99/274/72 101/275/72 95/276/72
f 102/277/73 100/278/73 94/279/73
f 100/280/74 102/281/74 103/282/74 101/283/74
f 101/284/75 103/285/75 95/286/75
f 104/287/76 102/288/76 94/289/76
f 102/290/77 104/291/77 105/292/77 103/293/77
f 103/294/78 105/295/78 95/296/78
f 106/297/79 104/298/79 94/299/79
f 104/300/80 106/301/80 107/302/80 105/303/80
f 105/304/81 107/305/81 95/306/81
f 108/307/82 106/308/82 94/309/82
f 106/310/83 108/311/83 109/312/83 107/313/83
f 107/314/84 109/315/84 95/316/84
f 110/317/85 108/318/85 94/319/85
f 108/320/86 110/321/86 111/322/86 109/323/86
f 109/324/87 111/325/87 95/326/87
f 96/327/88 110/328/88 94/329/88
f 110/330/89 96/331/89 97/332/89 111/333/89
f 111/334/90 97/335/90 95/336/90